HIERARCHY
ROOT SimulationBone
{
	OFFSET 0.000000 0.000000 0.000000
	CHANNELS 6 Xposition Yposition Zposition Zrotation Yrotation Xrotation 
	JOINT Hips
	{
		OFFSET 0.000000 0.000000 0.000000
		CHANNELS 6 Xposition Yposition Zposition Zrotation Yrotation Xrotation 
		JOINT RightUpLeg
		{
			OFFSET 0.103456 1.857840 10.548501
			CHANNELS 3 Zrotation Yrotation Xrotation
			JOINT RightLeg
			{
				OFFSET 43.499992 -0.000038 -0.000006
				CHANNELS 3 Zrotation Yrotation Xrotation
				JOINT RightFoot
				{
					OFFSET 42.372196 0.000031 0.000002
					CHANNELS 3 Zrotation Yrotation Xrotation
					JOINT RightToe
					{
						OFFSET 17.299974 -0.000010 -0.000017
						CHANNELS 3 Zrotation Yrotation Xrotation
						End Site
						{
							OFFSET 0.000000 0.000000 0.000000
						}
					}
				}
			}
		}
		JOINT LeftUpLeg
		{
			OFFSET 0.103462 1.857831 -10.548510
			CHANNELS 3 Zrotation Yrotation Xrotation
			JOINT LeftLeg
			{
				OFFSET 43.500046 -0.000015 0.000008
				CHANNELS 3 Zrotation Yrotation Xrotation
				JOINT LeftFoot
				{
					OFFSET 42.372265 -0.000015 0.000004
					CHANNELS 3 Zrotation Yrotation Xrotation
					JOINT LeftToe
					{
						OFFSET 17.299995 -0.000004 0.000013
						CHANNELS 3 Zrotation Yrotation Xrotation
						End Site
						{
							OFFSET 0.000000 0.000000 0.000000
						}
					}
				}
			}
		}
		JOINT Spine
		{
			OFFSET 6.901966 -2.603716 -0.000002
			CHANNELS 3 Zrotation Yrotation Xrotation
			JOINT Spine1
			{
				OFFSET 12.588102 -0.000001 0.000005
				CHANNELS 3 Zrotation Yrotation Xrotation
				JOINT Spine2
				{
					OFFSET 12.343201 -0.000023 -0.000011
					CHANNELS 3 Zrotation Yrotation Xrotation
					JOINT Neck
					{
						OFFSET 25.832901 0.000011 0.000007
						CHANNELS 3 Zrotation Yrotation Xrotation
						JOINT Head
						{
							OFFSET 11.766600 -0.000002 0.000002
							CHANNELS 3 Zrotation Yrotation Xrotation
							End Site
							{
								OFFSET 0.000000 0.000000 0.000000
							}
						}
					}
					JOINT RightShoulder
					{
						OFFSET 19.745907 -1.480350 6.000119
						CHANNELS 3 Zrotation Yrotation Xrotation
						JOINT RightArm
						{
							OFFSET 11.284122 -0.000013 -0.000023
							CHANNELS 3 Zrotation Yrotation Xrotation
							JOINT RightForeArm
							{
								OFFSET 33.000057 0.000005 0.000025
								CHANNELS 3 Zrotation Yrotation Xrotation
								JOINT RightHand
								{
									OFFSET 25.199997 0.000020 0.000019
									CHANNELS 3 Zrotation Yrotation Xrotation
									End Site
									{
										OFFSET 0.000000 0.000000 0.000000
									}
								}
							}
						}
					}
					JOINT LeftShoulder
					{
						OFFSET 19.746096 -1.480352 -6.000062
						CHANNELS 3 Zrotation Yrotation Xrotation
						JOINT LeftArm
						{
							OFFSET 11.284150 0.000007 -0.000012
							CHANNELS 3 Zrotation Yrotation Xrotation
							JOINT LeftForeArm
							{
								OFFSET 33.000092 0.000019 0.000012
								CHANNELS 3 Zrotation Yrotation Xrotation
								JOINT LeftHand
								{
									OFFSET 25.199797 0.000118 0.000427
									CHANNELS 3 Zrotation Yrotation Xrotation
									End Site
									{
										OFFSET 0.000000 0.000000 0.000000
									}
								}
							}
						}
					}
				}
			}
		}
	}
}
MOTION
Frames: 15
Frame Time: 0.033333
294.291355 0.000000 -263.645233 0.000000 -52.682324 0.000000 -11.967300 76.152161 0.204792 75.086253 0.388374 -172.600488 123.112206 -7.461506 162.000298 -74.211768 4.206778 -7.046174 101.074997 4.362896 -3.839394 21.454553 0.003104 0.000017 132.650962 15.557603 179.030610 -104.804800 -3.250081 4.734962 84.965552 -1.616882 7.429081 21.454551 -0.003088 -0.000001 10.956480 -1.731599 -2.602537 11.979699 -3.184072 -5.372612 11.662575 -3.216545 -5.353366 12.248464 17.681685 -1.545628 -30.981991 10.645920 -4.986923 107.204081 -77.362151 72.282949 -22.447021 49.312750 -6.933937 -65.480962 -13.707778 2.254347 -17.858669 -23.443374 22.585950 -155.415053 83.473217 26.423794 25.949272 -54.581940 -58.031432 -49.931801 14.485960 -1.713891 -2.636482 20.701484 -14.786509 
299.066668 0.000000 -260.076601 0.000000 -53.252407 0.000000 -12.524583 77.411758 -0.298378 74.970912 -0.585255 -173.573182 129.148495 -7.642809 156.800024 -72.623926 4.757276 -6.695315 103.928903 4.156095 -3.771204 21.454557 0.003106 0.000017 123.431135 9.454999 178.738510 -101.434204 -2.918245 5.366164 86.069003 -2.116759 7.583048 21.454543 -0.003097 -0.000003 10.796984 -1.263518 -2.626841 11.636429 -2.256120 -5.368511 11.319581 -2.288575 -5.354856 11.709826 16.119530 -2.136399 -31.339005 11.236675 -6.057901 105.512011 -77.664483 73.947951 -31.309864 52.599912 -11.956411 -69.829149 -12.542787 2.349673 -17.502712 -20.716929 23.176848 -153.453163 84.055252 28.393072 29.138280 -51.344485 -61.655182 -51.262291 13.689520 -1.703901 -5.349537 19.224182 -17.688207 
303.635724 0.000000 -256.472284 0.000000 -54.080214 0.000000 -12.592801 79.032677 -0.940023 74.938442 -2.373898 -173.796630 135.566742 -5.517708 154.168530 -69.743854 4.047938 -6.890737 103.591020 4.259365 -4.333240 21.454560 0.003108 0.000017 117.736492 4.444401 179.445858 -92.015967 -2.038019 5.140254 85.681370 -2.501203 5.008967 21.454550 -0.003099 -0.000002 10.545290 -0.848861 -2.713997 11.113144 -1.432864 -5.497351 10.796530 -1.466110 -5.488653 11.207520 13.482909 -3.055940 -30.874026 11.769511 -7.518340 102.147029 -77.686421 77.312960 -38.618812 56.071304 -14.271110 -74.239881 -11.190807 2.439903 -16.682392 -15.965040 23.518944 -150.805195 84.528577 31.051806 32.082987 -47.894967 -64.761716 -54.380610 13.167220 -1.773425 -6.354280 18.912707 -18.982928 
307.871270 0.000000 -252.763583 0.000000 -55.185722 0.000000 -12.392901 81.084976 -1.888979 74.985585 -4.981923 -173.870947 141.592581 -1.917609 151.829327 -66.285258 4.292604 -6.593045 98.710112 3.855715 -5.127064 21.454558 0.003103 0.000017 116.226406 1.695099 -179.465242 -77.358593 -0.269586 3.344354 84.840273 -1.502188 4.004002 21.454551 -0.003093 -0.000001 10.269666 -0.647681 -2.892686 10.553218 -1.028624 -5.832537 10.236875 -1.063907 -5.826252 11.870627 10.455516 -3.559391 -31.853981 11.985513 -8.746606 96.271038 -78.190093 83.136987 -45.033995 59.987038 -16.215322 -77.962231 -9.411817 2.475045 -16.084102 -12.235821 23.768749 -149.547866 85.626188 32.287137 34.315550 -45.978190 -67.282643 -57.540710 12.841992 -1.862307 -7.993187 17.769579 -19.653178 
311.762467 0.000000 -248.945636 0.000000 -56.594992 0.000000 -11.682143 82.968491 -3.181926 74.880102 -8.618063 -173.735618 145.831710 1.829105 151.324289 -65.406281 3.436109 -5.659459 88.271773 2.370824 -8.093802 21.454553 0.003109 0.000016 118.687050 0.532394 -175.662261 -58.965385 -0.409246 -0.554076 81.011460 1.027257 2.748942 21.454555 -0.003088 0.000000 9.842982 -0.751947 -3.077426 9.707488 -1.242946 -6.207371 9.391350 -1.280498 -6.199791 13.466545 6.855971 -4.050192 -33.171681 12.679928 -10.372163 97.597878 -79.266941 81.710960 -48.661669 62.890305 -15.955296 -81.790177 -6.945759 2.469285 -14.408165 -8.898998 23.565440 -153.747094 86.665866 28.035147 37.280388 -44.443505 -69.461296 -61.493614 12.690889 -1.997199 -7.420717 15.703127 -19.820611 
315.349270 0.000000 -244.984390 0.000000 -58.329228 0.000000 -10.428946 84.141693 -4.670447 75.127165 -12.671025 -173.356416 148.721236 4.338497 149.715575 -67.730546 4.009126 -2.598980 75.806309 -1.137783 -9.877774 21.454553 0.003106 0.000019 123.896503 -0.168698 -171.455698 -41.640685 -0.417922 -1.413977 75.589150 2.362870 4.799548 21.454553 -0.003085 -0.000002 9.353514 -1.115865 -3.091014 8.750148 -1.994871 -6.258404 8.433905 -2.032692 -6.246317 15.684761 2.995538 -5.116459 -33.702503 13.775080 -12.694689 106.176049 -79.118432 73.147931 -43.948183 65.035497 -9.945576 -86.387980 -4.481931 2.499623 -11.892269 -4.000854 27.034420 -150.876980 87.056956 30.908218 40.444340 -43.280324 -70.503009 -65.267170 11.609173 -2.067937 -8.268603 14.461090 -21.024294 
318.671853 0.000000 -240.884576 0.000000 -60.399487 0.000000 -9.085882 84.656219 -5.930845 76.003880 -15.662018 -172.528802 150.943069 4.600402 151.943213 -73.008971 2.962091 -0.030038 70.225307 -4.579111 -13.036441 21.454543 0.003107 0.000017 130.647257 -1.482606 -167.030009 -29.394313 -0.272933 2.096924 69.284052 0.301150 5.361955 21.454550 -0.003084 0.000002 8.913522 -1.494215 -2.816327 7.886550 -2.793225 -5.729496 7.569771 -2.827860 -5.712595 18.826464 1.231126 -6.207435 -34.807706 13.800549 -14.306345 108.350119 -80.010714 70.887965 -37.685801 66.844432 -1.897130 -91.080122 -2.900471 2.597915 -11.586841 0.058745 27.825431 -133.329090 86.594122 48.556262 43.718419 -43.015118 -73.044597 -68.484312 10.932741 -2.148848 -9.349511 14.397573 -21.882043 
321.810694 0.000000 -236.622640 0.000000 -62.820864 0.000000 -8.135090 83.868767 -7.079718 77.404815 -17.844310 -170.753293 151.195677 4.575300 155.546589 -81.891291 3.396705 -4.153755 71.176425 -2.086883 -14.778629 21.454545 0.003102 0.000022 135.514710 -2.840194 -159.296745 -27.240673 -1.869292 5.016679 66.222072 -10.004663 -16.891898 21.454550 -0.003088 -0.000001 8.618772 -1.687987 -2.383638 7.296192 -3.222596 -4.870675 6.978802 -3.252062 -4.851182 22.471995 -2.144783 -7.777281 -36.761987 15.391182 -17.445317 113.576887 -80.155173 65.635010 -28.015769 66.438268 7.875550 -95.000842 -2.503768 2.745660 -9.716164 1.571604 26.428027 -127.516107 86.338359 54.409236 49.558299 -41.960038 -73.653809 -73.277343 9.416381 -2.239990 -11.052376 11.687233 -24.494631 
324.802319 0.000000 -232.205258 0.000000 -65.590304 0.000000 -7.878201 81.912666 -8.285953 78.603814 -20.298688 -167.821432 148.647634 5.179388 161.512049 -93.013475 3.672359 -9.352825 74.470201 2.710635 -12.653719 21.454574 0.003112 0.000010 140.114610 -2.074210 -153.187332 -30.145959 -4.980959 8.288988 84.020978 -11.786032 -29.735461 21.454553 -0.003082 -0.000001 8.513326 -2.010195 -2.172691 7.093728 -3.883713 -4.466853 6.775886 -3.910732 -4.443363 24.269146 -4.584864 -9.257363 -37.931415 16.633969 -20.044030 118.833052 -81.283547 60.258026 -18.539254 64.767358 14.162997 -97.785680 -2.020986 2.836689 -9.188448 1.899162 25.243151 -112.879961 85.734604 69.148951 54.439534 -42.765293 -73.722350 -77.149411 7.656332 -2.280526 -12.028593 11.419830 -28.292681 
327.722836 0.000000 -227.654329 0.000000 -68.698862 0.000000 -8.388585 80.213318 -9.083521 80.359114 -20.856194 -166.618393 144.086679 4.625905 168.917914 -102.992101 4.087257 -12.364317 76.698817 6.115298 -8.784125 21.454555 0.003105 0.000012 143.813594 -2.306795 -155.460488 -36.129003 -5.280611 12.385598 97.047836 -10.789399 -31.025110 21.454555 -0.003094 -0.000001 8.778642 -1.948837 -1.643503 7.605068 -3.785583 -3.413204 7.286835 -3.806254 -3.390298 24.006413 -5.568745 -9.839125 -38.632523 17.826527 -21.555355 126.874001 -83.319920 52.004917 -12.754523 63.509524 14.215107 -97.859699 -1.881373 2.830245 -8.954815 -0.569395 24.014930 -104.046812 85.025234 78.070797 56.496777 -46.859319 -72.988146 -78.789032 7.491921 -2.338946 -15.122310 13.678762 -31.664559 
330.520945 0.000000 -223.006521 0.000000 -72.102124 0.000000 -9.633173 79.201637 -9.940719 80.650024 -19.928467 -169.382323 137.007297 2.103504 173.121690 -109.356390 4.430161 -14.075483 79.098604 8.684241 -3.889296 21.454565 0.003113 0.000018 144.545299 -3.818295 -163.830803 -44.196604 -1.049279 15.265225 103.108105 -10.846424 -29.723839 21.454555 -0.003094 0.000000 9.066352 -1.604208 -0.564586 8.140102 -3.164693 -1.240965 7.821563 -3.172273 -1.221824 20.080602 -6.346038 -9.709958 -37.395853 17.190341 -20.932925 172.864998 -81.654700 5.705081 -12.091788 60.045586 7.768273 -92.887793 -2.251690 2.633422 -12.412197 -5.871416 21.708539 -112.295017 84.225617 69.851983 48.910080 -54.655140 -66.169568 -76.443197 9.600258 -2.385596 -20.524350 17.336724 -34.051474 
333.111894 0.000000 -218.277329 0.000000 -75.747723 0.000000 -10.616785 79.409790 -10.098079 80.121211 -20.571438 -173.963201 131.276372 0.875098 175.655130 -108.781404 4.325052 -13.220127 82.099489 8.431711 -2.741186 21.454560 0.003107 0.000010 147.442283 -4.829506 -164.802698 -47.235392 -3.318532 12.013136 106.246796 -7.869952 -27.604650 21.454553 -0.003092 0.000001 9.348655 -1.768082 0.349158 8.679877 -3.557254 0.564994 8.361128 -3.553912 0.586488 17.347743 -9.613433 -8.827984 -36.589361 17.821478 -20.514099 -173.146006 -77.109134 -8.433107 -7.647941 57.965623 5.146204 -84.641774 -5.511766 2.494366 -13.801610 -14.619279 19.453277 -133.037141 86.396142 48.859775 36.576578 -63.281047 -51.949227 -74.505916 11.231994 -2.417185 -21.815047 18.273497 -33.096877 
335.428690 0.000000 -213.476118 0.000000 -79.568559 0.000000 -11.096268 80.459343 -9.503572 79.766685 -20.724121 -176.563932 126.502494 1.241800 178.702556 -102.862096 4.310894 -10.654447 82.210322 6.374273 -4.140266 21.454553 0.003111 0.000018 153.147157 -5.373910 -167.566411 -45.501481 -4.084077 9.772207 107.812002 -6.039392 -25.684090 21.454553 -0.003089 0.000000 9.588508 -2.056962 0.965424 9.137942 -4.183547 1.766483 8.819086 -4.172937 1.791732 16.896893 -10.079119 -7.977564 -36.636353 17.782691 -19.649916 -169.678947 -76.152627 -11.969987 2.199186 57.633498 8.703546 -79.222422 -7.920450 2.425595 -10.405431 -16.057889 14.985881 -152.473304 87.853424 29.285047 23.896870 -69.212390 -38.724659 -78.069411 10.472307 -2.515661 -23.581245 20.211459 -33.542871 
337.345689 0.000000 -208.616697 0.000000 -83.467208 0.000000 -11.230667 81.936623 -8.621231 78.234518 -21.334174 -177.809581 122.945195 2.800013 179.261730 -92.172098 4.206187 -9.206799 80.747890 5.057382 -5.545547 21.454558 0.003105 0.000018 158.717873 -4.516293 -171.377588 -41.706491 -4.003883 7.801051 107.432510 -4.899952 -24.170697 21.454557 -0.003093 0.000001 9.518802 -2.606038 1.610602 8.964090 -5.328713 3.017532 8.644984 -5.310550 3.049704 16.781906 -9.379955 -7.735304 -35.470074 18.055052 -19.233574 -167.670899 -76.183452 -14.023931 15.145642 55.141330 17.831278 -81.136165 -6.964346 2.442059 -9.445943 -13.665311 13.955139 -105.121550 88.956759 76.684460 20.271206 -72.832800 -33.095176 -86.497782 4.569205 -2.470039 -24.677451 23.544412 -30.494032 
338.829907 0.000000 -203.672142 0.000000 -87.342125 0.000000 -10.891166 83.338280 -7.662290 76.346009 -21.329941 -177.896528 121.851804 3.833493 179.900339 -77.141400 4.409017 -6.201966 78.127419 1.917368 -9.120088 21.454558 0.003112 0.000015 163.935701 -3.084507 -173.621974 -37.619473 -3.640963 5.405503 104.724599 -3.983630 -22.912725 21.454551 -0.003088 -0.000001 9.309806 -3.030589 2.109559 8.510706 -6.207722 3.996091 8.191430 -6.183633 4.033552 16.367940 -8.701083 -7.467444 -34.385805 18.474250 -18.907395 -165.539047 -77.090774 -16.199954 26.923158 51.860192 26.460044 -85.879780 -4.209487 2.458128 -9.619836 -11.937508 11.161514 -60.937896 89.382929 120.849132 22.009489 -71.347924 -37.288677 -97.605814 0.870604 -2.704281 -20.711526 26.206264 -24.367419 
